<?xml version="1.0" standalone="no"?>
<!DOCTYPE svg PUBLIC "-//W3C//DTD SVG 20010904//EN"
 "http://www.w3.org/TR/2001/REC-SVG-20010904/DTD/svg10.dtd">
<svg version="1.0" xmlns="http://www.w3.org/2000/svg"
 width="256.000000pt" height="256.000000pt" viewBox="0 0 256.000000 256.000000"
 preserveAspectRatio="xMidYMid meet">
<metadata>
Created by potrace 1.14, written by Peter Selinger 2001-2017
</metadata>
<g transform="translate(0.000000,256.000000) scale(0.100000,-0.100000)"
fill="#000000" stroke="none">
<path d="M1143 2256 c-395 -75 -744 -403 -843 -793 -49 -191 -13 -366 129
-628 140 -258 311 -469 419 -517 110 -49 410 -27 662 49 337 101 601 359 714
698 69 207 75 447 15 649 -17 56 -34 85 -88 150 -130 154 -232 235 -395 311
-136 64 -235 86 -401 91 -91 2 -165 -1 -212 -10z m357 -97 c191 -35 379 -136
505 -271 116 -126 124 -136 143 -199 121 -393 -46 -867 -387 -1098 -167 -114
-382 -180 -647 -200 -208 -15 -259 5 -370 143 -168 209 -298 436 -350 611 -28
94 -24 238 11 345 51 159 131 285 254 403 243 232 529 322 841 266z"/>
<path d="M1197 1823 c-18 -21 -117 -266 -117 -291 0 -41 54 -57 82 -24 19 22
118 265 118 290 0 41 -53 57 -83 25z"/>
<path d="M1682 1698 c-15 -19 -132 -316 -132 -336 0 -37 55 -58 78 -29 15 18
132 315 132 335 0 37 -55 58 -78 30z"/>
<path d="M824 1315 c-73 -111 -53 -259 49 -371 55 -60 167 -141 250 -180 106
-49 176 -26 347 115 98 81 111 107 65 137 -28 18 -31 17 -105 -47 -178 -152
-210 -158 -351 -70 -116 72 -182 147 -200 228 -11 49 -10 59 9 106 25 60 27
78 10 95 -20 20 -56 14 -74 -13z"/>
</g>
</svg>
