<svg xmlns="http://www.w3.org/2000/svg" viewBox="0 0 455.89 243.93"><g id="Calque_2" data-name="Calque 2"><g id="Calque_1-2" data-name="Calque 1"><path d="M85.27,70.22c-15.31.59-31.09.45-45.92,4.8a51.71,51.71,0,0,0-19,9.81c-6,5-10.3,12.1-13.49,19.18-7,15.49-8.89,33.31-4.34,49.77C7.41,171.63,20.18,185.69,34,197.39A185.22,185.22,0,0,0,80.9,226.32c18.28,7.78,37.52,12.24,57.21,14.62,20.61,2.49,41.52,3.11,62.28,3a484.12,484.12,0,0,0,62.29-4.24c38.11-5.2,75.62-16,109.58-34.24a246.35,246.35,0,0,0,45.12-31c14.39-12.51,26.83-26.9,32.85-45.29a122.37,122.37,0,0,0,4.37-54.63C452,56.92,444,41.05,429.81,30.07S397.65,12.91,380.32,8.41A271,271,0,0,0,321.56.19C281.4-1.19,241.35,5.11,202.42,14.51,161.79,24.31,122.06,37.4,81.81,48.6Q67,52.73,52.13,56.42c-3.75.92-2.16,6.71,1.59,5.79C92.93,52.55,131.34,40,170.22,29.15c37.94-10.6,76.54-19.57,115.94-22.29,38-2.62,76.94.43,112.88,13.63,15.48,5.69,31,14.11,40.17,28.35s11.25,32.08,10.41,48.8c-.94,18.48-5.37,36.63-16.49,51.71-10.52,14.27-25.07,26-39.55,36-29.54,20.47-63.33,34.16-98.24,42.27-39.29,9.12-79.86,11.28-120.06,9.93-20.16-.68-40.39-2.12-60.11-6.52a180.72,180.72,0,0,1-50.76-19.61c-15.37-8.83-30-19.92-41.67-33.35A68.41,68.41,0,0,1,9.37,155.79a64.31,64.31,0,0,1-3.3-23.88,69.31,69.31,0,0,1,5.36-23.61c2.92-6.93,7-13.88,12.68-18.86,10.68-9.28,26.05-11.33,39.64-12.29,7.16-.51,14.34-.66,21.52-.93,3.84-.15,3.86-6.15,0-6Z"/></g></g></svg>