<?xml version="1.0" encoding="UTF-8" standalone="no"?>
<svg
   xmlns="http://www.w3.org/2000/svg"
   version="1.1"
   viewBox="0 0 302.18 185.63">
  <g>
    <g>
      <path
         style="fill:#ffffff;stroke-width:0.89442718"
         d="m 111.62,34.414768 c -24.82,-2 -51.89,-3.792 -75.18,4.896 a 60.85,48.68 0 0 0 -26,18.224 71.2,56.96 0 0 0 -10.24,26.008 76.37,61.096 0 0 0 5.37,27.400002 93,74.4 0 0 0 20,23.936 c 18.78,15.264 43.87,24.112 69.83,28.32 a 258.84,207.072 0 0 0 43.6,3.712 316.12,252.896 0 0 0 45.64,-1.224 166.26,133.008 0 0 0 43.57,-8.536 169.8,135.84 0 0 0 36.79,-16.664 c 10.49,-6.192 20.65,-13.152 28,-21.864 7.18,-8.528 10.58,-18.504 8.69,-28.744002 -1.86,-10.04 -8.29,-19.376 -16.81,-26.784 -9.16,-7.96 -21,-13.704 -33.28,-18.08 -13.14,-4.696 -27,-8.096 -40.82,-11.2 q -22.17,-5 -44.78,-8.36 a 510.69,408.552 0 0 0 -91.71,-6.888 q -11.16,0 -22.29,0.344 c -1.92,0.064 -1.93,2.464 0,2.4 a 505.38,404.304 0 0 1 176.8,19.376 c 24.57,6.4 50.31,15.648 63.38,34.568 6,8.704 8.83,18.976 5.84,28.800002 -2.99,9.824 -11,17.96 -20,24.752 a 169.19,135.352 0 0 1 -32.48,18.976 150.79,120.632 0 0 1 -39.54,12.52 c -14.41,2.752 -29.22,3.896 -44,4.232 a 349.48,279.584 0 0 1 -43.41,-1.024 c -26.9,-2.072 -53.92,-7.72 -76.23,-20.352 -19.17,-10.872 -34.67,-26.944 -38.46,-45.856002 -3.48,-17.408 2.89,-36.744 19.81,-48.584 19,-13.28 45.86,-14.288 69.79,-13.128 6,0.288 12.09,0.736 18.12,1.224 1.92,0.152 1.91,-2.248 0,-2.4 z" />
    </g>
  </g>
</svg>
