<svg xmlns="http://www.w3.org/2000/svg" viewBox="0 0 739.13 558.38"><defs><style>.cls-1{font-size:118.6px;font-family:ApfelGrotezk-Regular, Apfel Grotezk;}.cls-1,.cls-5{fill:#fff;}.cls-2{letter-spacing:-0.01em;}.cls-3{letter-spacing:-0.01em;}.cls-4{letter-spacing:-0.01em;}</style></defs><g id="Calque_2" data-name="Calque 2"><g id="Calque_1-2" data-name="Calque 1"><text class="cls-1" transform="translate(0 104.85)">G<tspan class="cls-2" x="82.07" y="0">e</tspan><tspan x="144.69" y="0">t a glimpse</tspan><tspan x="0" y="142.32">of the sounds</tspan><tspan x="0" y="284.64">th</tspan><tspan class="cls-3" x="102.94" y="284.64">a</tspan><tspan x="159.63" y="284.64">t m</tspan><tspan class="cls-4" x="323.54" y="284.64">o</tspan><tspan class="cls-3" x="389" y="284.64">v</tspan><tspan x="444.75" y="284.64">e us</tspan></text><path class="cls-5" d="M225.61,416.32c14.7-3.59,29.9-2.45,44.69-.07,14.47,2.33,28.76,5.54,43.3,7.49,28.67,3.84,57.67,4.5,86.55,3.35,29.26-1.17,58.41-4.16,87.5-7.49s58.17-7,87.35-9.61,58.48-4.14,87.77-3.13c3.65.13,7.31.3,11,.51l-.76-2.8-5.27,3.12a1.5,1.5,0,0,0,1.51,2.6l5.27-3.13a1.51,1.51,0,0,0-.75-2.79c-29.25-1.65-58.57-.62-87.75,1.69-29.48,2.34-58.84,5.95-88.21,9.37-29.12,3.39-58.27,6.61-87.55,8.18s-58.43,1.49-87.46-1.75c-14.81-1.65-29.37-4.51-44-7.18-14.31-2.61-29-4.77-43.54-3.1a83.1,83.1,0,0,0-10.39,1.85c-1.87.45-1.08,3.35.8,2.89Z"/><path class="cls-5" d="M736.37,3.31c-3.62.37-5.73,3.41-7.85,6q-3.67,4.56-7.13,9.28a228.94,228.94,0,0,0-13,19.91,1.51,1.51,0,0,0,2.6,1.52q5.5-9.49,11.9-18.42,3.2-4.44,6.59-8.72c1.12-1.4,2.23-2.81,3.4-4.16.91-1,2-2.29,3.49-2.44,1.9-.2,1.92-3.2,0-3Z"/><path class="cls-5" d="M703.9,16.12c.47-1.22,2.31-.72,3.13-.3a30.58,30.58,0,0,1,4,2.74l8.59,6.21L737,37.35c1.56,1.13,3.06-1.47,1.51-2.59l-20.17-14.6-5-3.62a46.86,46.86,0,0,0-4.6-3.22c-2.76-1.52-6.46-1.27-7.71,2-.7,1.81,2.2,2.59,2.89.8Z"/><path class="cls-5" d="M690.84,32.67l44.5-9.53c1.89-.41,1.09-3.3-.8-2.89L690,29.77c-1.88.41-1.08,3.3.8,2.9Z"/><path class="cls-5" d="M713.26,1.87a266.75,266.75,0,0,1,6.28,53.28c0,1.93,3,1.93,3,0a270.92,270.92,0,0,0-6.39-54.07c-.42-1.89-3.31-1.09-2.89.79Z"/></g></g></svg>