<svg xmlns="http://www.w3.org/2000/svg" viewBox="0 0 259.5 198.81"><defs><style>.cls-1{fill:#fff;}</style></defs><g id="Calque_2" data-name="Calque 2"><g id="Calque_1-2" data-name="Calque 1"><path class="cls-1" d="M114,9.34a42.61,42.61,0,0,0-.32,17.24c.51,2.46,2.09,4.32,4.75,4.3A33.79,33.79,0,0,0,127,29.32a1.5,1.5,0,0,0-.79-2.9,39.9,39.9,0,0,1-7.07,1.42c-.83.07-1.59.13-2-.66a7.18,7.18,0,0,1-.66-2.58,42.38,42.38,0,0,1,.52-14.47c.39-1.88-2.5-2.68-2.89-.79Z"/><path class="cls-1" d="M135.22,25.15a130.68,130.68,0,0,1-1.4-16.41L131.56,10A41.84,41.84,0,0,1,147.8,26.28c.94,1.68,3.53.17,2.59-1.52A45,45,0,0,0,133.08,7.45a1.51,1.51,0,0,0-2.26,1.29A137.82,137.82,0,0,0,132.32,26a1.51,1.51,0,0,0,1.85,1,1.53,1.53,0,0,0,1.05-1.84Z"/><path class="cls-1" d="M132.81,21.44l11-1.08a1.54,1.54,0,0,0,1.5-1.5,1.51,1.51,0,0,0-1.5-1.5l-11,1.08a1.54,1.54,0,0,0-1.5,1.5,1.51,1.51,0,0,0,1.5,1.5Z"/><path class="cls-1" d="M145.23,9.32c.94-.87,3.16-.22,4.27-.1l5.59.62,11.19,1.23a1.51,1.51,0,0,0,1.5-1.5,1.54,1.54,0,0,0-1.5-1.5L153.8,6.7c-2-.22-4-.46-6-.66a5.61,5.61,0,0,0-4.66,1.16c-1.41,1.32.71,3.44,2.12,2.12Z"/><path class="cls-1" d="M154.83,8.72a51.11,51.11,0,0,1,3.33,16.84c.05,1.93,3.05,1.93,3,0a53.47,53.47,0,0,0-3.44-17.64,1.53,1.53,0,0,0-1.84-1,1.51,1.51,0,0,0-1,1.85Z"/><path class="cls-1" d="M169.6,12.17a32.4,32.4,0,0,0,.11,7.56c.29,2.18.56,5,2.84,6s4.64-.28,6.7-1l7.47-2.6a1.54,1.54,0,0,0,1.05-1.85,1.53,1.53,0,0,0-1.85-1l-6.32,2.2-3.16,1.1a5,5,0,0,1-2.47.53c-.63-.14-.76-.86-.89-1.4a23.28,23.28,0,0,1-.49-3,31.18,31.18,0,0,1,0-6.55,1.51,1.51,0,0,0-1.5-1.5,1.53,1.53,0,0,0-1.5,1.5Z"/><path class="cls-1" d="M168.44,14.36l5.22-3.18,2.52-1.53c.2-.12.41-.25.62-.36,0,0,.45-.2.25-.12l.32-.1c.19,0,.21-.05.07,0,.19,0,.2,0,.05,0s-.1,0,.06.05a1.5,1.5,0,1,0,1.52-2.59c-2.12-1.3-4.44.58-6.2,1.66l-5.94,3.61a1.53,1.53,0,0,0-.54,2.05,1.5,1.5,0,0,0,2.05.54Z"/><path class="cls-1" d="M171.79,21a12.32,12.32,0,0,1,4.07-3.17,10.58,10.58,0,0,1,2.28-.86c.43-.12.86-.22,1.3-.3l.31-.05h.07l.78-.07a1.5,1.5,0,1,0,0-3,15.92,15.92,0,0,0-10.93,5.34A1.5,1.5,0,1,0,171.79,21Z"/><path class="cls-1" d="M206.8,1.23a27.08,27.08,0,0,0-11.66-1A6.72,6.72,0,0,0,191,1.93a3.59,3.59,0,0,0-.27,4.38c1,1.54,2.68,2.54,4.1,3.58l5.11,3.75a15.54,15.54,0,0,1,3.86,3.41c.68,1,1.16,2.66.3,3.73a4.12,4.12,0,0,1-2.42,1c-1.17.25-2.35.49-3.53.71s-2.21.42-3.32.62a7.68,7.68,0,0,1-1.58.2,1.26,1.26,0,0,1-.51-.06c-.36-.18,0-.19-.11-.08,1.08-1.6-1.51-3.11-2.59-1.51A3,3,0,0,0,191.41,26c1.87.88,4.29.05,6.2-.3a44.52,44.52,0,0,0,6.29-1.34,5.09,5.09,0,0,0,3.46-3.59c.95-3.84-2-6.73-4.75-8.82-1.84-1.36-3.7-2.71-5.54-4.06-.85-.63-1.72-1.23-2.55-1.88-.44-.34-1.63-1.16-1.42-1.84s1.37-.75,1.86-.84A20.76,20.76,0,0,1,198.49,3,24.25,24.25,0,0,1,206,4.12c1.85.57,2.64-2.32.8-2.89Z"/><path class="cls-1" d="M211.58,7.81a71.88,71.88,0,0,1,19.69-1.28c1.93.13,1.92-2.87,0-3a75,75,0,0,0-20.49,1.39c-1.89.39-1.09,3.28.8,2.89Z"/><path class="cls-1" d="M220.26,3.56q-.33,9.09.19,18.18c.12,1.92,3.12,1.93,3,0q-.51-9.07-.19-18.18c.07-1.93-2.93-1.93-3,0Z"/><path class="cls-1" d="M129,46.5a167.16,167.16,0,0,1,6.55,20.64L138.25,66a49.13,49.13,0,0,1-5.43-9.12,34.87,34.87,0,0,1-3.2-10.08c-.16-1.34.09-2.6,1.46-3.11a3.71,3.71,0,0,1,3.59.66,3.79,3.79,0,0,1,1.45,3.53A2.93,2.93,0,0,1,133,50.15c-1.6-.15-1.87,2-.76,2.79A35,35,0,0,1,144.57,68c.76,1.77,3.35.24,2.59-1.51a37.77,37.77,0,0,0-13.45-16.17l-.76,2.8a5.93,5.93,0,0,0,6.22-6.1,7.05,7.05,0,0,0-5.86-6.49c-3.15-.46-6.29,1.31-6.68,4.63a14.78,14.78,0,0,0,.78,5.43,47,47,0,0,0,1.83,5.44,50.26,50.26,0,0,0,6.42,11.44,1.51,1.51,0,0,0,2.74-1.16,165.86,165.86,0,0,0-6.55-20.63c-.69-1.78-3.59-1-2.89.79Z"/><path class="cls-1" d="M144.54,48c.47,4.94-.5,10.34,2.26,14.79,2.36,3.8,7.6,5.69,11.32,2.59A1.5,1.5,0,1,0,156,63.26a4,4,0,0,1-4,.32,6.25,6.25,0,0,1-3.18-3.41c-1.67-3.79-.88-8.17-1.26-12.17a1.54,1.54,0,0,0-1.5-1.5,1.5,1.5,0,0,0-1.5,1.5Z"/><path class="cls-1" d="M145.52,51.58l5-1.82L149.35,47l-1.54.66a1.52,1.52,0,0,0-.69.9,1.5,1.5,0,0,0,1,1.84,1.73,1.73,0,0,0,1.16-.15l1.54-.66a1.51,1.51,0,0,0,.69-.9,1.57,1.57,0,0,0-.08-1,1.49,1.49,0,0,0-1.77-.87l-5,1.83a1.62,1.62,0,0,0-.89.69,1.5,1.5,0,0,0,1.69,2.2Z"/><path class="cls-1" d="M143.44,52.13a10.39,10.39,0,0,0,9.9,5.89,1.53,1.53,0,0,0,1.5-1.5,1.51,1.51,0,0,0-1.5-1.5,8.69,8.69,0,0,1-1.25,0l-.37,0c.13,0,.19,0,0,0l-.61-.13a11.78,11.78,0,0,1-1.19-.38c.32.11-.06,0-.11,0l-.22-.11c-.21-.1-.41-.22-.61-.33l-.53-.34-.25-.19c.17.12.06,0,0,0a7.41,7.41,0,0,1-.91-.86l-.21-.23s-.24-.3-.12-.14-.08-.12-.11-.15l-.17-.26a8.68,8.68,0,0,1-.63-1.16,1.51,1.51,0,0,0-2.05-.54,1.55,1.55,0,0,0-.54,2.06Z"/><path class="cls-1" d="M156.54,46.11a128,128,0,0,0,2.77,18.16c.48,2.1.93,4.84,3.23,5.7,2.53.94,4.57-1.18,5.85-3.09,1.08-1.6-1.52-3.11-2.59-1.51-.69,1-2.06,2.8-2.85.95A32.78,32.78,0,0,1,161.47,60a123.73,123.73,0,0,1-1.93-13.93c-.16-1.92-3.16-1.93-3,0Z"/><path class="cls-1" d="M168.19,51.37a35.48,35.48,0,0,0-.07,7.64,26.61,26.61,0,0,0,1.57,7.45c1,2.3,3,3.56,5.42,2.43a28.67,28.67,0,0,0,6.24-4.36,1.5,1.5,0,0,0,0-2.12,1.53,1.53,0,0,0-2.12,0,32,32,0,0,1-5,3.56c-.51.29-.9.6-1.33.15a5.21,5.21,0,0,1-.87-2.23,34.08,34.08,0,0,1-.83-12.52,1.51,1.51,0,0,0-1.5-1.5,1.53,1.53,0,0,0-1.5,1.5Z"/><path class="cls-1" d="M169.72,54.82a9.53,9.53,0,0,1,1.48-1.43l-.3.23a9.29,9.29,0,0,1,2-1.18l-.36.15a8.21,8.21,0,0,1,.78-.29,1.52,1.52,0,0,0,1-1.85,1.53,1.53,0,0,0-1.85-1,10.72,10.72,0,0,0-4.94,3.29,1.63,1.63,0,0,0-.44,1.06,1.5,1.5,0,0,0,.44,1.06,1.5,1.5,0,0,0,2.12,0Z"/><path class="cls-1" d="M169.27,66.34a6.53,6.53,0,0,0,.63-.53c-.06.06-.22.16-.06,0l.2-.15.34-.24a12.31,12.31,0,0,1,1.46-.84l.36-.17a1.11,1.11,0,0,0,.19-.09c-.07,0-.26.11-.07,0l.76-.29a13.79,13.79,0,0,1,1.68-.43,1.49,1.49,0,0,0,1.05-1.84A1.54,1.54,0,0,0,174,60.8a14.24,14.24,0,0,0-6.82,3.41,1.5,1.5,0,1,0,2.12,2.13Z"/><path class="cls-1" d="M188.77,66.25a71.22,71.22,0,0,1-3.69-22.61L184,45.08c1.7-.71,3.4,2.17,4.25,3.3A60,60,0,0,1,192,54,61.81,61.81,0,0,1,197.52,66c.61,1.83,3.5,1,2.89-.79a64.58,64.58,0,0,0-6.66-14.14,63,63,0,0,0-4.51-6.27c-1.42-1.74-3.66-3.65-6.05-2.65a1.56,1.56,0,0,0-1.11,1.45,73.9,73.9,0,0,0,3.79,23.41c.61,1.82,3.51,1,2.9-.8Z"/><path class="cls-1" d="M185,56.73l0,0,.24-.18c.15-.12.31-.23.47-.34.32-.22.65-.43,1-.64a19.19,19.19,0,0,1,2-1l.2-.09,0,0,.54-.21c.37-.13.74-.26,1.11-.37a19.87,19.87,0,0,1,2.28-.54A1.5,1.5,0,0,0,194,51.42a1.54,1.54,0,0,0-1.84-1.05,20.49,20.49,0,0,0-9.26,4.24,1.5,1.5,0,0,0,0,2.12,1.54,1.54,0,0,0,2.12,0Z"/><path class="cls-1" d="M211,44.83a25.74,25.74,0,0,0-6.42-2.78c-1.86-.51-4.26-1.16-6.06-.15-4.32,2.41-.07,7.51,2,9.75,2.85,3.06,6.25,5.83,8.22,9.59.95,1.81,1.57,4.26,0,5.94a2,2,0,0,1-2.17.72,1.5,1.5,0,0,1-1-1.76c.54-1.86-2.36-2.65-2.9-.8-.92,3.17,2.19,6.16,5.32,5.58,3.47-.64,5.07-4.42,4.57-7.61-.56-3.59-3.12-6.67-5.54-9.25-1.21-1.29-2.48-2.52-3.71-3.79A16.73,16.73,0,0,1,200,46.1c-.34-.74-.52-1.54.47-1.7a7.24,7.24,0,0,1,2.69.37,22.49,22.49,0,0,1,6.34,2.65A1.5,1.5,0,0,0,211,44.83Z"/><path class="cls-1" d="M215.46,48q-.11,4.56,0,9.12c0,1.53.05,3,.1,4.57a9.08,9.08,0,0,0,.6,3.46c2.52,5.61,9.72-1.92,11.67-4.45a1.5,1.5,0,1,0-2.59-1.51,18,18,0,0,1-4.32,4c-.34.22-1.6,1.13-1.85,1s-.45-1.22-.48-1.58c-.18-2.34-.13-4.72-.15-7.07,0-2.51,0-5,.06-7.54,0-1.94-3-1.93-3,0Z"/><path class="cls-1" d="M214.62,48.54c-.26,0-.1.05.51.16l.21.16c.16.24.2.29.13.16l.1.23c-.08-.25,0,.37,0,.11a1.92,1.92,0,0,0,0-.24c0,.27-.05.32,0,.16v-.07c.09-.33,0,0,0,0s.26-.53.28-.56a9,9,0,0,1,.67-1.06l.12-.17-.11.14a1.59,1.59,0,0,1,.2-.24l.45-.51a10.78,10.78,0,0,1,.93-.85l.12-.09-.1.07.25-.18.53-.34a8.93,8.93,0,0,1,1.1-.59l.15-.06-.12,0,.29-.11c.21-.08.43-.15.65-.21a1.52,1.52,0,0,0,1-1.85,1.51,1.51,0,0,0-1.84-1,11.4,11.4,0,0,0-5.6,3.63,9.52,9.52,0,0,0-1.85,3.05c-.45,1.38.24,3.24,1.91,3.2a1.5,1.5,0,0,0,0-3Z"/><path class="cls-1" d="M215.88,62.67l.35-.49c.23-.31-.12.15,0,0a2.11,2.11,0,0,0,.19-.23c.25-.31.51-.62.77-.92.53-.6,1.09-1.17,1.68-1.72.29-.27.59-.54.9-.8l.46-.38.19-.15c.31-.24-.15.11,0,0,.66-.49,1.33-1,2-1.39A1.5,1.5,0,0,0,221,54a26.85,26.85,0,0,0-7.7,7.2,1.51,1.51,0,0,0,.53,2.06,1.55,1.55,0,0,0,2.06-.54Z"/><path class="cls-1" d="M241.7,37c-3.6-1.13-8-1.53-10.69,1.62a5.64,5.64,0,0,0-1.42,4.65A9.53,9.53,0,0,0,232.46,48c2.49,2.64,5.65,5,7.16,8.38a4.38,4.38,0,0,1,.48,2.48c-.18.94-1,1.38-1.75,1.77A15.42,15.42,0,0,1,232.23,62c-1.92.07-1.93,3.07,0,3a18.58,18.58,0,0,0,5.9-1.12c1.7-.63,3.51-1.44,4.43-3.1,1.77-3.23-.68-7.11-2.72-9.55a52.15,52.15,0,0,0-3.72-3.86c-1.21-1.18-2.88-2.52-3.46-4.16s.69-3.13,2.12-3.72c1.95-.8,4.2-.2,6.12.4s2.63-2.31.8-2.89Z"/><path class="cls-1" d="M252.65,31.77A191.37,191.37,0,0,0,256,56.09c.39,1.89,3.28,1.09,2.9-.8a182.45,182.45,0,0,1-3.24-23.52c-.14-1.91-3.14-1.93-3,0Z"/><path class="cls-1" d="M258.93,66.82v0l.15.36s0,0,0,0l.05.4v0l-.05.4v0l-.16.36,0,0-.24.3h0l-.3.23,0,0-.36.15.07,0-.39.06h.09l-.39,0,.07,0-.36-.15,0,0-.3-.23,0,0-.24-.31v0l-.15-.36v0l-.06-.4a0,0,0,0,1,0,0l.06-.4s0,0,0,0l.15-.36,0,0a1.82,1.82,0,0,0-.15,1.16,1.26,1.26,0,0,0,.27.51,1.18,1.18,0,0,0,.42.38l.36.15a1.36,1.36,0,0,0,.8,0l.36-.15a1.45,1.45,0,0,0,.53-.54h0c0-.06.08-.2.08-.18s.05-.13.07-.19h0s.05-.38.05-.4h0s-.05-.39-.05-.4h0a3.88,3.88,0,0,0-.15-.36h0a1.69,1.69,0,0,0-.58-.58,2.66,2.66,0,0,0-.39-.16h-.07l-.4-.06h-.09l-.2,0-.21,0h-.06l-.36.15h0l0,0h0l-.3.23h0a2.34,2.34,0,0,0-.24.31h0s-.14.35-.15.36v0h0s-.06.39-.06.4h0s.05.38.06.41h0a1.78,1.78,0,0,0,.17.4,1.06,1.06,0,0,0,.39.42,1.14,1.14,0,0,0,.51.27,1.22,1.22,0,0,0,.6,0,1.09,1.09,0,0,0,.55-.18l.31-.24a1.45,1.45,0,0,0,.38-.66l.06-.4a1.42,1.42,0,0,0-.21-.75Z"/><path class="cls-1" d="M161.9,103.1c-4.35,21.17-18.5,39-35.86,51.27a146.46,146.46,0,0,1-30.61,16.24,183.38,183.38,0,0,1-34.21,10.22c-13.35,2.46-27.23,2.7-40.28-1.39l.36,2.74,4.76-3.24c1.59-1.08.09-3.68-1.51-2.59l-4.77,3.24a1.53,1.53,0,0,0,.36,2.75c23.89,7.48,49.7,1.1,72.41-7.42,21.5-8.06,42.24-19.91,56.59-38.25a79.55,79.55,0,0,0,15.65-32.77c.39-1.88-2.51-2.69-2.89-.8Z"/><path class="cls-1" d="M17.37,198.13a5,5,0,0,0,6.15-.85,1.52,1.52,0,0,0-.3-2.35A76.07,76.07,0,0,0,1.91,184.4l.66,2.51a131.32,131.32,0,0,1,31.31-20.2c1.75-.8.23-3.39-1.52-2.59A134,134,0,0,0,.45,184.79a1.51,1.51,0,0,0,.66,2.5,73.34,73.34,0,0,1,20.6,10.23l-.31-2.36a2,2,0,0,1-2.52.38,1.5,1.5,0,0,0-1.51,2.59Z"/></g></g></svg>