<svg xmlns="http://www.w3.org/2000/svg" viewBox="0 0 66.07 65.16"><defs><style>.cls-1{fill:#fff;}</style></defs><g id="Calque_2" data-name="Calque 2"><g id="Calque_1-2" data-name="Calque 1"><path class="cls-1" d="M61.25,15.28C54.47,5.3,41.61,0,29.7,1.85a34.93,34.93,0,0,0-26.59,22,22.72,22.72,0,0,0-1.6,9.38,27.1,27.1,0,0,0,2.9,9.56A74.25,74.25,0,0,0,14.83,59a13.24,13.24,0,0,0,4.65,3.91,13.72,13.72,0,0,0,6.09.65c7.8-.45,15.73-1.9,22.49-5.82,13.77-8,20.22-26.64,14.34-41.44"/><path d="M62.55,14.52A34.37,34.37,0,0,0,29.3.4C16.74,2.39,5.9,11.85,1.59,23.7A23,23,0,0,0,.25,35.24,36.56,36.56,0,0,0,4.31,46a74.45,74.45,0,0,0,6.16,9.91c2.07,2.8,4.29,6.06,7.35,7.86,3.28,1.94,7.38,1.42,11,1.07a60.35,60.35,0,0,0,11.08-2,35.63,35.63,0,0,0,16.55-10,36.91,36.91,0,0,0,8.71-32.73,30.72,30.72,0,0,0-1.33-4.21c-.69-1.78-3.59-1-2.89.8,4,10.09,2.16,21.72-3.9,30.6A30.92,30.92,0,0,1,44.62,57.87c-6.16,2.89-13.18,4-19.93,4.25a10.44,10.44,0,0,1-4.83-.66,11.92,11.92,0,0,1-3.7-3.19,68.77,68.77,0,0,1-6.37-8.72c-3.63-5.83-7.67-12.85-6.65-20C4.82,18,14.52,7.87,25.49,4.39,38,.43,52.5,5.21,60,16c1.09,1.58,3.69.08,2.59-1.51Z"/><path d="M30.05,15.54l-3.27,8.52a1.51,1.51,0,0,0,1,1.84,1.54,1.54,0,0,0,1.85-1L33,16.34a1.51,1.51,0,0,0-1.05-1.85,1.56,1.56,0,0,0-1.85,1Z"/><path d="M45.75,19.79,41.89,29.85a1.51,1.51,0,0,0,1,1.85,1.54,1.54,0,0,0,1.85-1.05l3.86-10.06a1.51,1.51,0,0,0-1-1.85,1.53,1.53,0,0,0-1.84,1.05Z"/><path d="M18.5,31.2A8.85,8.85,0,0,0,17.41,40C18.59,43,21.06,45.26,23.75,47s5.85,4.16,9.16,3a16.46,16.46,0,0,0,4.4-2.69q2.34-1.77,4.51-3.74c1.43-1.3-.69-3.42-2.12-2.12a36.71,36.71,0,0,1-7,5.38,3.39,3.39,0,0,1-3.45,0c-1.18-.61-2.32-1.32-3.43-2a14.27,14.27,0,0,1-5.3-5.16c-1-1.89-1.3-4.57.08-6.35a1.55,1.55,0,0,0,0-2.12,1.51,1.51,0,0,0-2.12,0Z"/></g></g></svg>