<svg xmlns="http://www.w3.org/2000/svg" viewBox="0 0 583.18 95.61"><g id="Calque_2" data-name="Calque 2"><g id="Calque_1-2" data-name="Calque 1"><path d="M94.17,53.51A168.43,168.43,0,0,0,109.1,79.64c1.47,2.1,2.88,4.54,5,6a6.3,6.3,0,0,0,7,.22,12.31,12.31,0,0,0,4.19-5.19c1.16-2.34,2.23-4.71,3.25-7.12A124.64,124.64,0,0,0,134.2,57c1-3.73-4.81-5.33-5.79-1.59a121.35,121.35,0,0,1-4.21,13q-1.2,3.11-2.59,6.13a28.46,28.46,0,0,1-2.79,5.4,3.31,3.31,0,0,1-1.11,1c.37-.14-.06-.06,0,0a4.1,4.1,0,0,1-.54-.43,30.47,30.47,0,0,1-3.66-5q-3.81-5.56-7.16-11.41-3.81-6.63-7-13.6a3,3,0,0,0-4.1-1.07,3.06,3.06,0,0,0-1.08,4.1Z"/><path d="M126.35,55A5.24,5.24,0,0,0,121,56.32a3,3,0,0,0-.77,2.92A38.44,38.44,0,0,0,130.2,76a11.27,11.27,0,0,0,4.26,3,5.47,5.47,0,0,0,5.36-1.36,10.75,10.75,0,0,0,2.46-4.25c.62-1.72,1.19-3.46,1.76-5.2q2-6.16,3.7-12.42H142l.88,2.79a3.07,3.07,0,0,0,3.69,2.1,3,3,0,0,0,2.1-3.69l-.89-2.79c-.87-2.76-5-2.94-5.78,0q-1.62,5.94-3.5,11.79c-.63,2-1.26,3.9-2,5.82-.06.2-.14.39-.21.58.07-.19.06-.18,0,0a4.92,4.92,0,0,1-.55.94c.15-.21.11-.18-.12.08.2-.14.22-.16,0,0-.33-.07.34,0,.43-.13s-.24-.23-.13-.13l-1.08-1q-.93-.89-1.8-1.83a29.28,29.28,0,0,1-2.91-3.74A31.89,31.89,0,0,1,126,57.64l-.78,2.92c-.24.25-1.06,0-.48.19a3,3,0,0,0,1.6-5.78Z"/><path d="M150.8,67.23c8,2.38,16.94,4.56,24.56-.07a14.22,14.22,0,0,0,6.71-8.56c1.16-5.06-3.18-8.51-7.9-8.62-8.79-.19-14,9.42-16.82,16.43a40.4,40.4,0,0,0-2.94,12.14,9.57,9.57,0,0,0,1.53,6.36,11.39,11.39,0,0,0,4.68,3.64c9.09,4,19,1.32,27.83-2.1a3.09,3.09,0,0,0,2.1-3.69,3,3,0,0,0-3.69-2.09c-6,2.31-12.68,4.7-19.21,3.77-2.19-.31-6.09-1.21-7-3.33a6.76,6.76,0,0,1-.12-3.46,37.17,37.17,0,0,1,1.09-5.11,38.93,38.93,0,0,1,3.71-8.92c1.42-2.46,3.08-5.18,5.57-6.69a5.93,5.93,0,0,1,3.3-1,3.94,3.94,0,0,1,1.45.31l.61.38s.13.44.09.11c.11.85-.63,1.89-1.12,2.6a9.69,9.69,0,0,1-2.41,2.32,14.32,14.32,0,0,1-8.7,2.23c-4-.13-7.89-1.35-11.7-2.49s-5.29,4.68-1.59,5.79Z"/><path d="M244.89,68.22a3.43,3.43,0,0,1,.31-2c-.15.37.07-.1.09-.14s.21-.37.33-.55a4.87,4.87,0,0,1,.76-.88,6.75,6.75,0,0,1,1.81-1.26,7.35,7.35,0,0,1,2.46-.75c-.34,0,.77,0,.87,0a5.11,5.11,0,0,1,.95.08,10.26,10.26,0,0,1,2.63.84,16.33,16.33,0,0,1,4.79,3.71,24.13,24.13,0,0,1,3.59,5.09,8.9,8.9,0,0,1,1.12,5.42c-.73,3.58-3.78,6.39-6.86,8.54-1.85,1.29-4,2.94-6.3,3.32a3.83,3.83,0,0,1-1.17,0l-.59-.26a4.27,4.27,0,0,1-.48-.47c.28.28-.4-.39-.07-.06,0,0-.38-.47-.09-.12-.15-.19.11-.45-.09,0a3.08,3.08,0,0,0-1.08-4.1,3,3,0,0,0-4.1,1.07,6.8,6.8,0,0,0,2.53,8.61c2.93,2.07,6.59,1.47,9.65,0a36.1,36.1,0,0,0,7.55-4.94A21.25,21.25,0,0,0,269,83a13.61,13.61,0,0,0,1.42-9,21,21,0,0,0-4.22-8.48c-3.54-4.67-8.68-8.94-14.86-8.92s-12.77,5-12.46,11.63a3.07,3.07,0,0,0,3,3,3,3,0,0,0,3-3Z"/><path d="M240.16,70.91a18,18,0,0,1,7.61,8.78,19.88,19.88,0,0,1,1.36,5.85,15.88,15.88,0,0,1-.7,6.1c-1.11,3.71,4.68,5.3,5.78,1.6a24.39,24.39,0,0,0-11-27.51c-3.35-1.92-6.38,3.26-3,5.18Z"/><path d="M284.7,65c-1.66-3.22-5.4-4.32-8.78-3.75-3.7.63-6.33,3.56-7.74,6.87a29,29,0,0,0-2.24,11.62A13.35,13.35,0,0,0,271,90.4c3.45,2.56,7.8,2.14,11.42.17A30,30,0,0,0,291,83.41c2.41-2.94,4.31-6.5,4.32-10.4a12.58,12.58,0,0,0-4.14-9.2A9.35,9.35,0,0,0,280,62.53c-3.48,2.14-5.25,6-6.49,9.78a3,3,0,1,0,5.78,1.59,13.79,13.79,0,0,1,3.05-5.64,3.36,3.36,0,0,1,2.14-1.09c-.48.07,1.14.11.6,0a4.79,4.79,0,0,1,.74.21c.2.07.2.06,0,0,.19.1.37.19.55.3a5.83,5.83,0,0,1,1.72,1.63,6.6,6.6,0,0,1,1.17,2.85c.11.58,0-.66,0,.36q0,.42,0,.84a6,6,0,0,1-.24,1.37,10.69,10.69,0,0,1-1.44,3.2,22.88,22.88,0,0,1-5.34,5.55c-1.74,1.37-4.2,3.21-6.47,2.69-1.68-.39-3-2.13-3.48-3.84-.82-2.8-.28-5.87.35-8.65.54-2.36,1.42-5.06,3.29-6.18a4.43,4.43,0,0,1,1.24-.42c-.5.1.11,0,.25,0s1.1.06.52,0c.2,0,.38.1.57.13s.36.12.08,0a3.29,3.29,0,0,1,.49.26c-.09,0-.4-.37.05,0,.23.25.25.27.07,0a3.15,3.15,0,0,1,.28.51,3,3,0,0,0,5.18-3Z"/><path d="M298.81,85.21,300,59.81l-5.59,1.52a181,181,0,0,0,12.73,21.84c2.11,3.08,5.22,6.87,9.47,5.81s4.88-6.7,5.57-10.28a76.75,76.75,0,0,0,1.42-15,3,3,0,0,0-2.6-3,3,3,0,0,0-3.29,2.15L316.94,65A3,3,0,0,0,319,68.7a3.07,3.07,0,0,0,3.69-2.1l.81-2.07-5.89-.79a69.07,69.07,0,0,1-1.29,13.83c-.14.69-1.24,5.91-1.54,5.83,0,0,.17-.22.25-.21.67.07,0-.13.18,0a6.09,6.09,0,0,1-1.77-1.47A49.74,49.74,0,0,1,310,76.63q-1.9-3-3.71-6-3.58-6-6.68-12.36c-1.4-2.83-5.46-1.25-5.6,1.51l-1.23,25.4a3,3,0,0,0,6,0Z"/><path d="M332.22,65.76l4.19-14.48a3,3,0,0,0-5.79-1.59l-4.18,14.47a3,3,0,0,0,5.78,1.6Z"/><path d="M336.86,63.07l18.58-2.53,9.16-1.25,4.46-.61c.67-.09,1.34-.2,2-.26.22,0,.44,0,.67,0,.62-.05,0,.24-.67-.66a3.1,3.1,0,0,0,4.11,1.08c1.28-.75,2-2.8,1.07-4.11C373.9,51.51,370.36,52.5,367,53l-10.65,1.45-21.05,2.86c-1.61.22-2.48,2.28-2.1,3.7a3.08,3.08,0,0,0,3.69,2.09Z"/><path d="M348.49,58.6A99.17,99.17,0,0,1,340,85.31,3.09,3.09,0,0,0,341,89.42a3,3,0,0,0,4.1-1.08,104.53,104.53,0,0,0,9.15-28.15,3.1,3.1,0,0,0-2.1-3.69,3,3,0,0,0-3.69,2.1Z"/><path d="M435.26,55.68a141,141,0,0,0-21-3.08c-1.7-.11-3.41-.2-5.11-.25a16.8,16.8,0,0,0-5.06.17,4.2,4.2,0,0,0-3.2,4,7.56,7.56,0,0,0,1.73,4.09c2.89,4,7.23,6.52,10.64,9.51A12.37,12.37,0,0,1,417,74.84c-.23-.53.23.7.18.56-.12-.36.11.35.12.46,0,.31.56-.94-.08.3.07-.12.26-.25,0-.07a15,15,0,0,1-3.76,1.42,71.25,71.25,0,0,1-21.95,3.07L393,86.17l1.83-.8c1.49-.64,1.83-2.82,1.08-4.1a3.09,3.09,0,0,0-4.11-1.08L390,81a3,3,0,0,0-1.38,3.39,3.06,3.06,0,0,0,2.89,2.2,78,78,0,0,0,14.71-1.18q3.45-.6,6.82-1.52a35.58,35.58,0,0,0,6.61-2.27,6.31,6.31,0,0,0,3.66-5.75,11.16,11.16,0,0,0-2.11-5.8c-2-3-4.8-5.13-7.62-7.27a42.42,42.42,0,0,1-3.94-3.21,17.49,17.49,0,0,1-1.95-2.09c.19.25-.36-.54-.45-.68s-.22-.36-.32-.54c-.22-.4,0-.24,0-.07l-.41,1.52a6.16,6.16,0,0,1-.69.55c-.27,0-.22,0,.15,0a8.44,8.44,0,0,0,1.95,0c1.3,0,2.6.07,3.9.14q3.65.18,7.29.57a128.54,128.54,0,0,1,14.58,2.44,3.07,3.07,0,0,0,3.69-2.1,3,3,0,0,0-2.09-3.69Z"/><path d="M441.06,59.39q-1.28,12.14-3.48,24.14h5.79A184.89,184.89,0,0,1,441,52.36c0-1,0-2,.08-3a2.71,2.71,0,0,1,.12-.79,10.5,10.5,0,0,1,.37-1.36c-.15.41.28-.52.34-.62-.34.51.37-.45.16-.17a.21.21,0,0,1,.18,0c.08,0,.61.23.83.35a20.39,20.39,0,0,1,4.63,3.64,10.13,10.13,0,0,1,1.6,2c.12.2.23.41.34.62,0,0,.2.51.1.24.07.21.14.44.19.65.1.42.05.13.06.39.1,1.65-1,2.91-2.59,3.79-2.06,1.12-4.85,1.16-7.26,1.25-3.85.13-3.87,6.13,0,6,5.94-.22,12.86-1.33,15.29-7.63,2.13-5.55-2-10.59-6.07-13.81-2.44-1.91-5.23-4-8.53-3.3-2.58.57-4.21,2.66-5.05,5.05s-.79,5.18-.8,7.75q0,4.86.23,9.72a199,199,0,0,0,2.35,22.06c.47,2.9,5.27,2.84,5.79,0q2.34-12.78,3.69-25.73c.18-1.62-1.5-3-3-3a3.08,3.08,0,0,0-3,3Z"/><path d="M456.36,81.1q1.33-8.76,3.21-17.43c.58-2.66,1.13-5.35,1.88-8,.53-1.86,1.18-3.59,2.69-4.47L460,50.15a212.85,212.85,0,0,1,9.17,26.47c1,3.71,6.81,2.14,5.78-1.6a222.75,222.75,0,0,0-9.77-27.9c-.63-1.49-2.85-1.81-4.1-1.07-5,3-5.86,9.43-7,14.61Q452,70,450.58,79.5a3.09,3.09,0,0,0,2.09,3.69c1.42.39,3.45-.48,3.69-2.09Z"/><path d="M457.06,71.26,469.13,68a3,3,0,1,0-1.59-5.79l-12.08,3.32a3,3,0,1,0,1.6,5.78Z"/><path d="M479.36,77.94l.12-31.38-5.59,1.51L480.49,60c1.18,2.14,2.54,4.35,5.35,4,2.14-.24,3.45-2,4.68-3.54a23.85,23.85,0,0,1,3.17-3.63c.4-.34-.27.17.15-.12.13-.09.26-.18.4-.26s.26-.15.4-.21c.46-.21-.35.11.13,0a3.63,3.63,0,0,1,.45-.1c-.25,0-.25,0,.14,0a2.27,2.27,0,0,1,.61.13c1.49.63,2.67,2.33,3.73,3.57l4.45,5.24,10.17,12a3,3,0,0,0,4.25,0,3.07,3.07,0,0,0,0-4.24l-8.91-10.47-4.45-5.24a39.49,39.49,0,0,0-3.91-4.36c-3.08-2.71-7.28-3.54-10.74-1a18.84,18.84,0,0,0-3.63,3.67c-.47.6-.93,1.2-1.41,1.79a6.14,6.14,0,0,0-.79.91c-1,2.07-.12,0-.13.15l1.84.18c.13.13.13.11,0-.06,0-.41-.59-1-.79-1.41l-.94-1.71-1.89-3.41-3.77-6.82c-1.46-2.64-5.58-1.42-5.59,1.51l-.12,31.38c0,3.87,6,3.87,6,0Z"/><path d="M550.59,52.72H553a2.32,2.32,0,0,0,1.16-.26,2.25,2.25,0,0,0,1-.62,2.13,2.13,0,0,0,.62-1,2.17,2.17,0,0,0,.26-1.15l-.11-.8a2.94,2.94,0,0,0-.77-1.32l-.6-.47a3,3,0,0,0-1.52-.41h-2.42a2.17,2.17,0,0,0-1.15.26,2.13,2.13,0,0,0-1,.62,2.25,2.25,0,0,0-.62,1,2.3,2.3,0,0,0-.26,1.16l.11.8a3.05,3.05,0,0,0,.77,1.32l.61.47a3,3,0,0,0,1.51.41Z"/><path d="M569.14,49.49c3.86,0,3.87-6,0-6s-3.87,6,0,6Z"/><path d="M551.19,65.42A41.45,41.45,0,0,0,558,76.32c2.79,3.24,6.2,6.49,10.69,6.81,4.3.31,8.29-2.42,10.66-5.82,2.63-3.78,3.22-8.52,3.8-13,.22-1.61-1.53-3-3-3-1.79,0-2.78,1.39-3,3-.43,3.26-.89,6.83-2.76,9.62-1.37,2-3.89,3.62-6,3.08-2.84-.71-5.18-3.76-6.93-5.94a37.31,37.31,0,0,1-5.08-8.72c-.63-1.49-2.83-1.82-4.1-1.08a3.09,3.09,0,0,0-1.08,4.11Z"/><path d="M22.27,3.78,29.49,53.2c.24,1.61,2.27,2.49,3.69,2.1a3.08,3.08,0,0,0,2.1-3.69L28.05,2.19C27.82.58,25.79-.3,24.36.09a3.07,3.07,0,0,0-2.09,3.69Z"/><path d="M8.19,38.35A170,170,0,0,0,52.63,28.21a3.09,3.09,0,0,0,2.09-3.69A3,3,0,0,0,51,22.42,163.87,163.87,0,0,1,8.19,32.35a3.08,3.08,0,0,0-3,3,3,3,0,0,0,3,3Z"/><path d="M35.47,13.06A190,190,0,0,1,9.82,57.62a3.09,3.09,0,0,0,0,4.24c1,1,3.24,1.29,4.24,0a200.28,200.28,0,0,0,27.2-47.21c.61-1.5-.67-3.29-2.1-3.69a3.08,3.08,0,0,0-3.69,2.1Z"/><path d="M3.8,26.86c14.86-5.22,30,2.74,41.3,12,3.48,2.83,6.82,5.83,10.15,8.83a3.07,3.07,0,0,0,4.24,0,3,3,0,0,0,0-4.24C47.08,32.22,33.59,20.63,16.17,19.31a34.67,34.67,0,0,0-14,1.76A3.07,3.07,0,0,0,.11,24.76a3,3,0,0,0,3.69,2.1Z"/></g></g></svg>